<svg width="1920" height="1080" viewBox="0 0 1920 1080" fill="none" xmlns="http://www.w3.org/2000/svg">
<g clip-path="url(#clip0_28_32)">
<path d="M1695.9 291.578C1712.61 291.578 1726.15 305.122 1726.15 321.829C1726.15 331.54 1721.56 340.159 1714.45 345.695C1723.34 353.989 1744.38 376.096 1757.57 410.256L1730.42 420.339C1730.42 420.339 1725.46 376.591 1702.45 351.349C1700.34 351.816 1698.15 352.08 1695.9 352.08C1679.19 352.08 1665.65 338.536 1665.65 321.828C1665.65 305.122 1679.19 291.578 1695.9 291.578Z" fill="#ACEAF9"/>
<path d="M1724.87 429.35L1766.02 414.068L1763.64 407.909C1752 377.747 1734.33 356.555 1723.8 345.749C1729.5 339.144 1732.67 330.741 1732.67 321.829C1732.67 301.555 1716.17 285.06 1695.9 285.06C1675.62 285.06 1659.13 301.555 1659.13 321.829C1659.13 342.103 1675.62 358.598 1695.9 358.598C1697.22 358.598 1698.56 358.523 1699.9 358.372C1719.32 382.125 1723.89 420.672 1723.94 421.074L1724.87 429.35ZM1748.98 406.49L1735.62 411.454C1733.15 398.123 1726.56 371.274 1711.09 351.498C1719.34 359.387 1736.75 378.209 1748.98 406.49ZM1704.72 344.173L1701.04 344.985C1699.31 345.369 1697.57 345.563 1695.9 345.563C1682.81 345.563 1672.16 334.915 1672.16 321.829C1672.16 308.743 1682.81 298.095 1695.9 298.095C1708.98 298.095 1719.63 308.743 1719.63 321.829C1719.63 329.182 1716.28 336.006 1710.44 340.551L1705.16 344.656L1704.72 344.173Z" fill="#261B21"/>
<path d="M1601.07 681.3C1607.44 741.838 1667.97 805.426 1805.19 805.374C1913.2 807.042 1973.42 780.606 2004.58 739.856C2033.7 701.871 2037.51 651.449 2031.28 599.801C2018.34 492.753 1968.97 441.966 1893.85 401.633C1887.02 372.512 1875.81 348.553 1859.34 330.772C1865.98 324.828 1870.16 316.198 1870.16 306.578C1870.16 288.64 1855.61 274.093 1837.67 274.093C1819.73 274.093 1805.19 288.64 1805.19 306.578C1805.19 324.515 1819.73 339.062 1837.67 339.062C1839.29 339.062 1840.88 338.932 1842.42 338.724C1855.03 352.255 1860.46 371.365 1861.92 393.604C1709.87 377.987 1603.5 478.675 1607.9 632.73C1601.73 647.721 1599.27 664.38 1601.07 681.3Z" fill="#52C5FF"/>
<path fill-rule="evenodd" clip-rule="evenodd" d="M1617.3 629.034C1625.32 473.474 1722.46 391.896 1865.7 406.248C1890.48 456.133 1635.55 389.184 1617.3 629.034Z" fill="#49A1D3"/>
<path d="M1615.22 673.431C1621.22 730.468 1678.25 790.38 1807.53 790.331C1909.3 791.903 1966.04 766.995 1995.4 728.602L1993.73 726.465C2015.96 677.116 2016.96 617.205 1993.73 545.208C2040.37 790.405 1659.24 806.788 1617.97 664.294C1617.97 664.294 1616.6 667.61 1615.22 673.431Z" fill="#49A1D3"/>
<path d="M1856.17 654.044C1833.15 654.044 1814.48 631.297 1814.48 603.238C1814.48 575.178 1833.15 552.431 1856.17 552.431C1879.2 552.431 1897.87 575.178 1897.87 603.238C1897.87 631.297 1879.2 654.044 1856.17 654.044Z" fill="#261B21"/>
<path d="M1838.46 601.75C1832.79 601.75 1828.19 596.194 1828.19 589.34C1828.19 582.485 1832.79 576.929 1838.46 576.929C1844.14 576.929 1848.74 582.485 1848.74 589.34C1848.74 596.194 1844.14 601.75 1838.46 601.75Z" fill="white"/>
<g opacity="0.31">
<path d="M1857.96 642.607C1853.67 642.607 1850.2 639.569 1850.2 635.82C1850.2 632.072 1853.67 629.033 1857.96 629.033C1862.24 629.033 1865.71 632.072 1865.71 635.82C1865.71 639.569 1862.24 642.607 1857.96 642.607Z" fill="white"/>
</g>
<path d="M1656.54 632.717C1639.27 632.717 1625.26 611.498 1625.26 585.323C1625.26 559.148 1639.27 537.929 1656.54 537.929C1673.81 537.929 1687.82 559.148 1687.82 585.323C1687.82 611.498 1673.81 632.717 1656.54 632.717Z" fill="#261B21"/>
<path d="M1643.26 583.937C1639 583.937 1635.55 578.754 1635.55 572.36C1635.55 565.966 1639 560.783 1643.26 560.783C1647.52 560.783 1650.97 565.966 1650.97 572.36C1650.97 578.754 1647.52 583.937 1643.26 583.937Z" fill="white"/>
<g opacity="0.31">
<path d="M1657.88 622.049C1654.66 622.049 1652.06 619.214 1652.06 615.718C1652.06 612.221 1654.66 609.387 1657.88 609.387C1661.09 609.387 1663.7 612.221 1663.7 615.718C1663.7 619.214 1661.09 622.049 1657.88 622.049Z" fill="white"/>
</g>
<path fill-rule="evenodd" clip-rule="evenodd" d="M1899.52 538.736C1900.63 532.625 1889.35 521.592 1873.13 518.634C1856.9 515.677 1840.42 521.824 1840.76 528.026C1841.1 534.243 1852.23 527.931 1869.75 531.588C1885.89 534.958 1898.41 544.846 1899.52 538.736Z" fill="#261B21"/>
<path fill-rule="evenodd" clip-rule="evenodd" d="M1624.45 527.806C1624.28 521.597 1634.15 510.645 1646.93 507.964C1659.71 505.284 1671.68 511.827 1670.73 518.1C1669.77 524.388 1661.94 517.781 1648.09 521.145C1635.33 524.246 1624.63 534.015 1624.45 527.806Z" fill="#261B21"/>
<path d="M1815.01 811.969C1905.15 811.969 1966.73 792.273 2003.11 751.869C2034.62 716.874 2045.95 666.875 2037.75 599.019C2031.44 546.84 2016.18 505.223 1991.09 471.787C1969.81 443.425 1940.67 419.703 1899.51 397.282C1892.8 370.153 1882.26 347.871 1868.14 330.919C1873.62 324.059 1876.67 315.477 1876.67 306.578C1876.67 285.071 1859.17 267.575 1837.67 267.575C1816.16 267.575 1798.67 285.071 1798.67 306.578C1798.67 328.084 1816.16 345.58 1837.67 345.58C1838.34 345.58 1839.02 345.562 1839.71 345.525C1847.74 355.296 1852.69 368.75 1854.73 386.413C1783.13 380.884 1718.8 401.106 1672.9 443.742C1624.86 488.356 1599.48 555.007 1601.35 631.544C1588.19 664.684 1592.87 703.12 1613.98 734.653C1633.29 763.506 1683.79 811.887 1804.98 811.892C1805.03 811.892 1805.08 811.892 1805.13 811.892C1808.46 811.943 1811.76 811.969 1815.01 811.969ZM1837.67 280.61C1851.99 280.61 1863.64 292.259 1863.64 306.578C1863.64 313.953 1860.48 321 1854.99 325.912L1850.04 330.335L1854.55 335.202C1869.68 351.522 1880.76 374.373 1887.51 403.122L1888.18 405.985L1890.77 407.376C1961.82 445.528 2011.81 492.986 2024.8 600.582C2032.53 664.482 2022.26 711.115 1993.42 743.148C1958.88 781.513 1895.58 800.252 1805.29 798.856H1805.18C1805.12 798.856 1805.05 798.856 1804.98 798.856C1689.83 798.858 1642.68 754.096 1624.81 727.402C1605.86 699.08 1601.79 664.618 1613.93 635.217L1614.46 633.933L1614.42 632.544C1612.32 559.24 1636.24 495.581 1681.77 453.293C1726.55 411.696 1790.29 392.801 1861.25 400.087L1868.93 400.876L1868.42 393.177C1866.7 367.028 1859.76 347.762 1847.18 334.279L1844.88 331.813L1841.54 332.266C1840.15 332.454 1838.88 332.546 1837.67 332.546C1823.35 332.546 1811.7 320.896 1811.7 306.579C1811.7 292.259 1823.35 280.61 1837.67 280.61Z" fill="#261B21"/>
<path d="M1708.42 672.381C1717.22 687.034 1738.34 695.142 1753.5 685.206C1758.44 681.991 1762.19 677.367 1764.23 672.259C1764.57 671.416 1764.16 670.46 1763.32 670.122C1762.69 669.872 1762.01 670.032 1761.56 670.474C1757.81 673.942 1754.03 676.849 1749.88 678.656C1736.61 684.824 1722.21 678.485 1711.78 669.503C1709.9 667.822 1707.05 670.273 1708.42 672.381Z" fill="#261B21"/>
<path d="M121.42 291.578C104.713 291.578 91.1687 305.122 91.1687 321.829C91.1687 331.54 95.7626 340.159 102.876 345.695C93.9817 353.989 72.9381 376.096 59.7539 410.256L86.9026 420.339C86.9026 420.339 91.8581 376.591 114.87 351.349C116.981 351.816 119.168 352.08 121.42 352.08C138.128 352.08 151.671 338.536 151.671 321.828C151.671 305.122 138.128 291.578 121.42 291.578Z" fill="#ACEAF9"/>
<path d="M92.4478 429.35L51.3027 414.068L53.6789 407.909C65.3199 377.747 82.9924 356.555 93.5192 345.749C87.8215 339.144 84.6567 330.741 84.6567 321.829C84.6567 301.555 101.152 285.06 121.426 285.06C141.7 285.06 158.194 301.555 158.194 321.829C158.194 342.103 141.7 358.598 121.426 358.598C120.102 358.598 118.763 358.523 117.422 358.372C97.998 382.125 93.4296 420.672 93.3848 421.074L92.4478 429.35ZM68.3408 406.49L81.7054 411.454C84.1692 398.123 90.7637 371.274 106.23 351.498C97.9822 359.387 80.5678 378.209 68.3408 406.49ZM112.599 344.173L116.281 344.985C118.016 345.369 119.748 345.563 121.426 345.563C134.512 345.563 145.159 334.915 145.159 321.829C145.159 308.743 134.513 298.095 121.426 298.095C108.339 298.095 97.6921 308.743 97.6921 321.829C97.6921 329.182 101.043 336.006 106.885 340.551L112.159 344.656L112.599 344.173Z" fill="#261B21"/>
<path d="M216.249 681.3C209.887 741.838 149.35 805.426 12.1367 805.374C-95.8767 807.042 -156.101 780.606 -187.257 739.856C-216.378 701.871 -220.185 651.449 -213.954 599.801C-201.022 492.753 -151.643 441.966 -76.5319 401.633C-69.7013 372.512 -58.4907 348.553 -42.0137 330.772C-48.6619 324.828 -52.8332 316.198 -52.8332 306.578C-52.8332 288.64 -38.2853 274.093 -20.3484 274.093C-2.41154 274.093 12.1364 288.64 12.1364 306.578C12.1364 324.515 -2.41154 339.062 -20.3484 339.062C-21.9647 339.062 -23.5553 338.932 -25.0935 338.724C-37.712 352.255 -43.1348 371.365 -44.5947 393.604C107.453 377.987 213.824 478.675 209.418 632.73C215.597 647.721 218.048 664.38 216.249 681.3Z" fill="#52C5FF"/>
<path fill-rule="evenodd" clip-rule="evenodd" d="M200.025 629.034C192.005 473.474 94.8652 391.896 -48.3783 406.248C-73.1556 456.133 181.775 389.184 200.025 629.034Z" fill="#49A1D3"/>
<path d="M202.099 673.431C196.106 730.468 139.069 790.38 9.78934 790.331C-91.9785 791.903 -148.721 766.995 -178.075 728.602L-176.405 726.465C-198.635 677.116 -199.642 617.205 -176.405 545.208C-223.051 790.405 158.081 806.788 199.348 664.294C199.348 664.294 200.724 667.61 202.099 673.431Z" fill="#49A1D3"/>
<path d="M-38.8504 654.044C-15.8242 654.044 2.84216 631.297 2.84216 603.238C2.84216 575.178 -15.8242 552.431 -38.8504 552.431C-61.8766 552.431 -80.543 575.178 -80.543 603.238C-80.543 631.297 -61.8766 654.044 -38.8504 654.044Z" fill="#261B21"/>
<path d="M160.783 632.717C178.057 632.717 192.06 611.498 192.06 585.323C192.06 559.148 178.057 537.929 160.783 537.929C143.509 537.929 129.506 559.148 129.506 585.323C129.506 611.498 143.509 632.717 160.783 632.717Z" fill="#261B21"/>
<path d="M174.064 583.937C178.322 583.937 181.774 578.754 181.774 572.36C181.774 565.966 178.322 560.783 174.064 560.783C169.805 560.783 166.354 565.966 166.354 572.36C166.354 578.754 169.805 583.937 174.064 583.937Z" fill="white"/>
<g opacity="0.31">
<path d="M159.444 622.049C162.658 622.049 165.263 619.214 165.263 615.718C165.263 612.221 162.658 609.387 159.444 609.387C156.23 609.387 153.625 612.221 153.625 615.718C153.625 619.214 156.23 622.049 159.444 622.049Z" fill="white"/>
</g>
<path fill-rule="evenodd" clip-rule="evenodd" d="M192.87 527.806C193.047 521.597 183.169 510.645 170.39 507.964C157.611 505.284 145.643 511.827 146.594 518.1C147.547 524.388 155.385 517.781 169.232 521.145C181.994 524.246 192.692 534.015 192.87 527.806Z" fill="#261B21"/>
<path d="M2.31633 811.969C-87.8231 811.969 -149.409 792.273 -185.786 751.869C-217.294 716.874 -228.624 666.875 -220.423 599.019C-214.12 546.84 -198.86 505.223 -173.772 471.787C-152.491 443.425 -123.344 419.703 -82.1867 397.282C-75.4756 370.153 -64.9396 347.871 -50.8137 330.919C-56.2944 324.059 -59.3489 315.477 -59.3489 306.578C-59.3489 285.071 -41.8526 267.575 -20.3469 267.575C1.15967 267.575 18.6557 285.071 18.6557 306.578C18.6557 328.084 1.15934 345.58 -20.3469 345.58C-21.0212 345.58 -21.6998 345.562 -22.388 345.525C-30.42 355.296 -35.3644 368.75 -37.4051 386.413C34.1956 380.884 98.5238 401.106 144.427 443.742C192.459 488.356 217.839 555.007 215.97 631.544C229.129 664.684 224.449 703.12 203.344 734.653C184.033 763.506 133.531 811.887 12.34 811.892C12.2877 811.892 12.2419 811.892 12.1896 811.892C8.86579 811.943 5.56603 811.969 2.31633 811.969ZM-20.3469 280.61C-34.6647 280.61 -46.3139 292.259 -46.3139 306.578C-46.3139 313.953 -43.162 321 -37.6678 325.912L-32.7212 330.335L-37.2315 335.202C-52.354 351.522 -63.4421 374.373 -70.1855 403.122L-70.8568 405.985L-73.4478 407.376C-144.5 445.528 -194.485 492.986 -207.482 600.582C-215.205 664.482 -204.939 711.115 -176.099 743.148C-141.558 781.513 -78.2581 800.252 12.0364 798.856H12.1409C12.2034 798.856 12.2768 798.856 12.34 798.856C127.493 798.858 174.644 754.096 192.51 727.402C211.466 699.08 215.535 664.618 203.394 635.217L202.863 633.933L202.903 632.544C205 559.24 181.082 495.581 135.554 453.293C90.7693 411.696 27.0305 392.801 -43.9282 400.087L-51.6033 400.876L-51.0976 393.177C-49.3815 367.028 -42.4341 347.762 -29.8597 334.279L-27.5598 331.813L-24.2193 332.266C-22.8285 332.454 -21.5625 332.546 -20.3479 332.546C-6.02915 332.546 5.62 320.896 5.62 306.579C5.62066 292.259 -6.02819 280.61 -20.3469 280.61Z" fill="#261B21"/>
<path d="M108.907 672.381C100.102 687.034 78.9841 695.142 63.8258 685.206C58.8828 681.991 55.1356 677.367 53.089 672.259C52.7515 671.416 53.1607 670.46 54.003 670.122C54.6276 669.872 55.3131 670.032 55.7651 670.474C59.514 673.942 63.2875 676.849 67.4373 678.656C80.716 684.824 95.1092 678.485 105.538 669.503C107.426 667.822 110.274 670.273 108.907 672.381Z" fill="#261B21"/>
</g>
<defs>
<clipPath id="clip0_28_32">
<rect width="1920" height="1080" fill="white"/>
</clipPath>
</defs>
</svg>
