<svg width="1920" height="1743" viewBox="0 0 1920 1743" fill="none" xmlns="http://www.w3.org/2000/svg">
<g clip-path="url(#clip0_292_52)">
<rect width="1920" height="1743" fill="#F6A087"/>
<path opacity="0.3" d="M-76 -496C-68.4802 -285.443 -32.0157 -67.9384 22.4677 135.046C63.6331 288.412 105.068 455.619 224.168 568.361C320.875 659.905 439.428 728.507 524.336 832.796C632.976 966.236 554.566 1162.07 522.747 1310.32C511.016 1364.98 522.051 1414.79 533.865 1469.4C555.124 1567.67 586.452 1662.92 625.45 1755.54C647.034 1806.81 673.796 1854.6 701.419 1902.72C705.725 1910.22 717.932 1925.36 713.86 1935.54C711.367 1941.77 699.157 1937.63 694.272 1941.63C682.469 1951.28 710.286 2008.02 713.86 2017.07C742.659 2089.98 859.561 2294.71 824.503 2224.59" stroke="white" stroke-width="63" stroke-linecap="round"/>
<path opacity="0.3" d="M529 -496C536.52 -285.443 572.984 -67.9384 627.468 135.046C668.633 288.412 710.068 455.619 829.168 568.361C925.875 659.905 1044.43 728.507 1129.34 832.796C1237.98 966.236 1159.57 1162.07 1127.75 1310.32C1116.02 1364.98 1127.05 1414.79 1138.86 1469.4C1160.12 1567.67 1191.45 1662.92 1230.45 1755.54C1252.03 1806.81 1278.8 1854.6 1306.42 1902.72C1310.73 1910.22 1322.93 1925.36 1318.86 1935.54C1316.37 1941.77 1304.16 1937.63 1299.27 1941.63C1287.47 1951.28 1315.29 2008.02 1318.86 2017.07C1347.66 2089.98 1464.56 2294.71 1429.5 2224.59" stroke="white" stroke-width="63" stroke-linecap="round"/>
<path opacity="0.3" d="M1074 -496C1081.52 -285.443 1117.98 -67.9384 1172.47 135.046C1213.63 288.412 1255.07 455.619 1374.17 568.361C1470.88 659.905 1589.43 728.507 1674.34 832.796C1782.98 966.236 1704.57 1162.07 1672.75 1310.32C1661.02 1364.98 1672.05 1414.79 1683.86 1469.4C1705.12 1567.67 1736.45 1662.92 1775.45 1755.54C1797.03 1806.81 1823.8 1854.6 1851.42 1902.72C1855.73 1910.22 1867.93 1925.36 1863.86 1935.54C1861.37 1941.77 1849.16 1937.63 1844.27 1941.63C1832.47 1951.28 1860.29 2008.02 1863.86 2017.07C1892.66 2089.98 2009.56 2294.71 1974.5 2224.59" stroke="white" stroke-width="63" stroke-linecap="round"/>
<path d="M-39 -496C-31.4802 -285.443 4.98426 -67.9384 59.4677 135.046C100.633 288.412 142.068 455.619 261.168 568.361C357.875 659.905 476.428 728.507 561.336 832.796C669.976 966.236 591.566 1162.07 559.747 1310.32C548.016 1364.98 559.051 1414.79 570.865 1469.4C592.124 1567.67 623.452 1662.92 662.45 1755.54C684.034 1806.81 710.796 1854.6 738.419 1902.72C742.725 1910.22 754.932 1925.36 750.86 1935.54C748.367 1941.77 736.157 1937.63 731.272 1941.63C719.469 1951.28 747.286 2008.02 750.86 2017.07C779.659 2089.98 896.561 2294.71 861.503 2224.59" stroke="black" stroke-width="63" stroke-linecap="round"/>
<path d="M566 -496C573.52 -285.443 609.984 -67.9384 664.468 135.046C705.633 288.412 747.068 455.619 866.168 568.361C962.875 659.905 1081.43 728.507 1166.34 832.796C1274.98 966.236 1196.57 1162.07 1164.75 1310.32C1153.02 1364.98 1164.05 1414.79 1175.86 1469.4C1197.12 1567.67 1228.45 1662.92 1267.45 1755.54C1289.03 1806.81 1315.8 1854.6 1343.42 1902.72C1347.73 1910.22 1359.93 1925.36 1355.86 1935.54C1353.37 1941.77 1341.16 1937.63 1336.27 1941.63C1324.47 1951.28 1352.29 2008.02 1355.86 2017.07C1384.66 2089.98 1501.56 2294.71 1466.5 2224.59" stroke="black" stroke-width="63" stroke-linecap="round"/>
<path d="M1111 -496C1118.52 -285.443 1154.98 -67.9384 1209.47 135.046C1250.63 288.412 1292.07 455.619 1411.17 568.361C1507.88 659.905 1626.43 728.507 1711.34 832.796C1819.98 966.236 1741.57 1162.07 1709.75 1310.32C1698.02 1364.98 1709.05 1414.79 1720.86 1469.4C1742.12 1567.67 1773.45 1662.92 1812.45 1755.54C1834.03 1806.81 1860.8 1854.6 1888.42 1902.72C1892.73 1910.22 1904.93 1925.36 1900.86 1935.54C1898.37 1941.77 1886.16 1937.63 1881.27 1941.63C1869.47 1951.28 1897.29 2008.02 1900.86 2017.07C1929.66 2089.98 2046.56 2294.71 2011.5 2224.59" stroke="black" stroke-width="63" stroke-linecap="round"/>
</g>
<defs>
<clipPath id="clip0_292_52">
<rect width="1920" height="1743" fill="white"/>
</clipPath>
</defs>
</svg>
