<svg width="112" height="112" viewBox="0 0 112 112" fill="none" xmlns="http://www.w3.org/2000/svg">
<circle cx="56" cy="56" r="53.5" fill="#FFD90E" stroke="black" stroke-width="5"/>
<path d="M79.8918 33.8542C79.6947 33.2656 79.4595 33.1107 79.092 32.9636C78.2884 32.6615 76.9272 33.1185 76.9272 33.1185C76.9272 33.1185 28.7372 50.6832 25.9841 52.6271C25.3913 53.0453 25.1927 53.2931 25.0942 53.5797C24.6183 54.9582 26.101 55.57 26.101 55.57L38.5218 59.6747C38.5218 59.6747 38.9847 59.7444 39.1497 59.636C41.9754 57.8237 67.5787 41.4362 69.0553 40.8863C69.2883 40.8166 69.4609 40.894 69.4151 41.0567C68.8238 43.1632 46.5862 63.1985 46.5862 63.1985C46.5862 63.1985 46.5014 63.3069 46.448 63.4308L46.4189 63.4153L45.2601 75.9073C45.2601 75.9073 44.7743 79.7332 48.5487 75.9073C51.2116 73.2045 53.7882 70.9431 55.0776 69.8511C59.3485 72.8405 63.9448 76.1474 65.9287 77.8745C66.9248 78.7419 67.7582 78.8813 68.4442 78.858C70.3272 78.7883 70.8527 76.6896 70.8527 76.6896C70.8527 76.6896 79.6344 40.8553 79.9277 36.0537C79.9567 35.5813 79.9965 35.2869 79.9995 34.9617C80.0049 34.5125 79.9636 34.0633 79.8918 33.8542Z" fill="black"/>
</svg>
