<svg width="112" height="112" viewBox="0 0 112 112" fill="none" xmlns="http://www.w3.org/2000/svg">
<circle cx="56" cy="56" r="53.5" fill="#FFD90E" stroke="black" stroke-width="5"/>
<path d="M66.8036 77.9631L54.3002 59.7968L52.5197 57.2108L38.011 36.131H44.252L55.9853 53.1788L57.7657 55.7647L73.0445 77.9631H66.8036ZM75.6246 76.1886L59.8765 53.3097L58.0961 50.7222L46.8309 34.3561L45.8972 32.9999H32.0547L35.4306 37.9055L50.409 59.6686L52.1895 62.2534L64.2243 79.7395L65.1581 81.0942H79.0007L75.6246 76.1886Z" fill="black"/>
<path d="M52.5191 57.2108L54.2996 59.7968L52.1889 62.2534L35.9936 81.0942H32L50.4083 59.6686L52.5191 57.2108Z" fill="black"/>
<path d="M77.3332 32.9998L59.8756 53.3096L57.7648 55.7646L55.9844 53.1787L58.0952 50.7221L69.9207 36.9578L73.3395 32.9998H77.3332Z" fill="black"/>
</svg>
